<?xml version="1.0" encoding="UTF-8" standalone="no"?>
<svg
   xmlns:dc="http://purl.org/dc/elements/1.1/"
   xmlns:cc="http://creativecommons.org/ns#"
   xmlns:rdf="http://www.w3.org/1999/02/22-rdf-syntax-ns#"
   xmlns:svg="http://www.w3.org/2000/svg"
   xmlns="http://www.w3.org/2000/svg"
   xmlns:sodipodi="http://sodipodi.sourceforge.net/DTD/sodipodi-0.dtd"
   xmlns:inkscape="http://www.inkscape.org/namespaces/inkscape"
   width="400"
   height="240"
   viewBox="0 0 105.83333 63.500002"
   version="1.1"
   id="svg8"
   inkscape:version="1.0.2 (1.0.2+r75+1)"
   sodipodi:docname="boot.svg"
   inkscape:export-filename="/home/james/Code/Voxellius/VxOS/assets/boot.png"
   inkscape:export-xdpi="96"
   inkscape:export-ydpi="96">
  <defs
     id="defs2">
    <rect
       x="106.68453"
       y="366.71902"
       width="480.22894"
       height="104.47239"
       id="rect863" />
  </defs>
  <sodipodi:namedview
     id="base"
     pagecolor="#ffffff"
     bordercolor="#666666"
     borderopacity="1.0"
     inkscape:pageopacity="0.0"
     inkscape:pageshadow="2"
     inkscape:zoom="1.1680293"
     inkscape:cx="170.216"
     inkscape:cy="74.827026"
     inkscape:document-units="px"
     inkscape:current-layer="g899"
     inkscape:document-rotation="0"
     showgrid="false"
     units="px"
     inkscape:snap-bbox="true"
     inkscape:bbox-paths="true"
     inkscape:bbox-nodes="true"
     inkscape:snap-bbox-edge-midpoints="true"
     inkscape:snap-midpoints="false"
     inkscape:snap-bbox-midpoints="true"
     inkscape:object-paths="false"
     inkscape:snap-smooth-nodes="true"
     inkscape:snap-page="true"
     inkscape:window-width="1196"
     inkscape:window-height="742"
     inkscape:window-x="0"
     inkscape:window-y="32"
     inkscape:window-maximized="0" />
  <metadata
     id="metadata5">
    <rdf:RDF>
      <cc:Work
         rdf:about="">
        <dc:format>image/svg+xml</dc:format>
        <dc:type
           rdf:resource="http://purl.org/dc/dcmitype/StillImage" />
        <dc:title></dc:title>
      </cc:Work>
    </rdf:RDF>
  </metadata>
  <g
     inkscape:label="Layer 1"
     inkscape:groupmode="layer"
     id="layer1">
    <g
       style="fill:none;stroke:none;stroke-linecap:square;stroke-miterlimit:10"
       id="g859"
       transform="matrix(0.26458333,0,0,0.26458333,-57.491916,15.908876)">
      <g
         clip-path="url(#p.0)"
         id="g844">
        <g
           id="g899"
           transform="matrix(0.26219766,0,0,0.26219766,251.20568,45.400512)">
          <rect
             style="fill:#ffffff;fill-opacity:1;stroke-width:28.9193;stop-color:#000000"
             id="rect983"
             width="1525.5667"
             height="915.33997"
             x="-129.34286"
             y="-402.47708" />
          <path
             fill="#000000"
             fill-opacity="0"
             d="M 0,0 H 892.50134 V 113 H 0 Z"
             fill-rule="evenodd"
             id="path836" />
          <path
             fill="#000000"
             fill-opacity="0"
             d="M 0,-3 H 892.4094 V 110.38583 H 0 Z"
             fill-rule="evenodd"
             id="path838" />
          <path
             fill="#000000"
             d="M 70.71875,2.4960327 H 93.921875 L 68.640625,111.29291 H 27.84375 L 2.5625,2.4960327 h 23.203125 l 18.875,89.5937503 h 7.203125 z m 58.64568,83.1250003 q 4.71875,8.390625 17.67187,8.390625 12.96875,0 17.6875,-8.390625 4.71875,-8.40625 4.71875,-28.15625 0,-19.765625 -4.8125,-28.71875 -4.79687,-8.96875 -17.59375,-8.96875 -12.79687,0 -17.59375,8.96875 -4.79687,8.953125 -4.79687,28.71875 0,19.75 4.71875,28.15625 z m 52.625,14.078125 q -10.15625,13.515622 -34.95313,13.515622 -24.79687,0 -34.95312,-13.515622 -10.15625,-13.53125 -10.15625,-42.328125 0,-28.796875 10.15625,-42.796875 10.15625,-14.0000003 34.95312,-14.0000003 24.79688,0 34.95313,14.0000003 10.17187,14 10.17187,42.796875 0,28.796875 -10.17187,42.328125 z M 222.40198,2.4960327 242.55823,42.496033 263.19885,2.4960327 h 22.875 L 254.71448,58.011658 286.07385,111.29291 H 261.6051 L 241.43323,73.699158 220.7926,111.29291 h -22.875 L 229.27698,59.136658 197.9176,2.4960327 Z M 299.36389,111.29291 V 2.4960327 h 70.39063 V 21.699158 h -48.3125 v 25.4375 h 38.71875 v 18.875 h -38.71875 v 26.078125 h 48.3125 v 19.203127 z m 150.56192,0 H 388.00394 V 2.4960327 h 22.07812 V 91.777283 h 39.84375 z m 75.52005,0 H 463.52399 V 2.4960327 h 22.07812 V 91.777283 h 39.84375 z m 13.59815,0 V 2.4960327 h 22.07812 V 111.29291 Z m 66.86938,-36.312502 q 0,19.03125 19.35938,19.03125 19.375,0 19.375,-19.03125 V 2.4960327 h 22.07812 V 74.496033 q 0,20 -10.32812,29.359377 -10.3125,9.35937 -31.125,9.35937 -20.79688,0 -31.125,-9.35937 -10.3125,-9.359377 -10.3125,-29.359377 V 2.4960327 h 22.07812 z m 116.9682,-55.203125 q -17.4375,0 -17.4375,11.515625 0,5.125 4.3125,7.84375 4.32813,2.71875 20.23438,7.84375 15.92187,5.109375 22.32812,11.59375 6.40625,6.484375 6.40625,19.921875 0,17.109375 -10.40625,25.921877 -10.40625,8.79687 -27.20312,8.79687 -12.46875,0 -30.5625,-3.84375 l -5.75,-1.125 2.23437,-17.109372 q 21.4375,2.875 32.79688,2.875 16.96875,0 16.96875,-14.078125 0,-5.125 -3.92188,-8 -3.92187,-2.875 -15.59375,-6.234375 -18.5625,-5.28125 -26.17187,-12.5625 -7.59375,-7.28125 -7.59375,-20.25 0,-16.3125 9.92187,-24.3125003 9.92188,-8 27.20313,-8 11.82812,0 30.07812,3.203125 l 5.75,1.109375 -1.75,17.4531253 q -22.5625,-2.5625 -31.84375,-2.5625 z"
             fill-rule="nonzero"
             id="path840" />
          <path
             fill="#219bff"
             d="M 779.0236,0 H 892.4094 V 113.38583 H 779.0236 Z"
             fill-rule="evenodd"
             id="path842"
             style="fill:#000000;fill-opacity:1" />
          <text
             xml:space="preserve"
             id="text861"
             style="font-size:40px;line-height:1.25;font-family:'Titillium Web';-inkscape-font-specification:'Titillium Web';word-spacing:0px;white-space:pre;shape-inside:url(#rect863);" />
          <g
             aria-label="VxOS"
             id="text869"
             style="font-size:160.001px;line-height:1.25;font-family:'Titillium Web';-inkscape-font-specification:'Titillium Web';word-spacing:0px;stroke-width:4.00002">
            <path
               d="m 980.96001,1.9200107 h 23.20019 L 978.88,110.7207 H 938.07974 L 912.79958,1.9200107 h 23.20015 l 18.88011,89.6005643 h 7.20005 z"
               style="font-style:normal;font-variant:normal;font-weight:bold;font-stretch:normal;font-family:'Titillium Web';-inkscape-font-specification:'Titillium Web Bold';fill:#000000;stroke-width:4.00002"
               id="path879" />
            <path
               d="m 1007.8397,30.720192 h 22.8801 l 12.8001,24.800156 12.9601,-24.800156 h 22.8801 L 1056.64,69.920439 1079.3601,110.7207 H 1056.48 l -12.9601,-24.480159 -12.8001,24.480159 h -22.8801 l 21.9201,-40.160257 z"
               style="font-style:normal;font-variant:normal;font-weight:bold;font-stretch:normal;font-family:'Titillium Web';-inkscape-font-specification:'Titillium Web Bold';fill:#000000;stroke-width:4.00002"
               id="path881" />
            <path
               d="m 1115.8402,85.120534 q 4.8,8.320053 17.7601,8.320053 12.9601,0 17.6001,-8.320053 4.8001,-8.480053 4.8001,-28.160177 0,-19.840125 -4.8001,-28.800181 -4.8,-8.960057 -17.6001,-8.960057 -12.8001,0 -17.6001,8.960057 -4.8,8.960056 -4.8,28.800181 0,19.680124 4.64,28.160177 z m 52.6403,14.080089 q -10.08,13.440087 -34.8802,13.440087 -24.8001,0 -35.0402,-13.440087 -10.0801,-13.600086 -10.0801,-42.400267 0,-28.800181 10.0801,-42.720269 10.2401,-14.0800884038086 35.0402,-14.0800884038086 24.8002,0 34.8802,14.0800884038086 10.2401,13.920088 10.2401,42.720269 0,28.800181 -10.2401,42.400267 z"
               style="font-style:normal;font-variant:normal;font-weight:bold;font-stretch:normal;font-family:'Titillium Web';-inkscape-font-specification:'Titillium Web Bold';fill:#000000;stroke-width:4.00002"
               id="path883" />
            <path
               d="m 1231.0407,19.200119 q -17.4401,0 -17.4401,11.520073 0,5.120032 4.32,7.840049 4.32,2.720017 20.1601,7.84005 16.0001,5.120032 22.4002,11.680073 6.4,6.40004 6.4,19.840125 0,17.120108 -10.4,25.920161 -10.4001,8.80006 -27.2002,8.80006 -12.4801,0 -30.5602,-3.84003 l -5.76,-1.12 2.24,-17.120111 q 21.4401,2.880018 32.8002,2.880018 16.9601,0 16.9601,-14.080089 0,-5.120032 -4,-8.00005 -3.8401,-2.880018 -15.5201,-6.24004 -18.5602,-5.280033 -26.2402,-12.480078 -7.5201,-7.360046 -7.5201,-20.320128 0,-16.320103 9.9201,-24.320153 9.9201,-8.0000504038086 27.2002,-8.0000504038086 11.8401,0 30.0802,3.2000201038086 l 5.76,1.1200071 -1.76,17.4401102 q -22.5602,-2.560017 -31.8402,-2.560017 z"
               style="font-style:normal;font-variant:normal;font-weight:bold;font-stretch:normal;font-family:'Titillium Web';-inkscape-font-specification:'Titillium Web Bold';fill:#000000;stroke-width:4.00002"
               id="path885" />
          </g>
          <text
             xml:space="preserve"
             style="font-size:76.2785px;line-height:1.25;font-family:'Titillium Web';-inkscape-font-specification:'Titillium Web';word-spacing:0px;stroke-width:1.90696"
             x="420.7002"
             y="451.07739"
             id="text927"><tspan
               sodipodi:role="line"
               id="tspan925"
               x="420.7002"
               y="451.07739"
               style="fill:#000000;stroke-width:1.90696">voxellius.com</tspan></text>
        </g>
      </g>
    </g>
  </g>
</svg>
