STARTFONT 2.1
COMMENT
COMMENT Converted from OpenType font "titilliumweb-numerals.otf" by "otf2bdf 3.0".
COMMENT
FONT -FreeType-Titillium Web-Medium-R-Normal--89-640-100-100-P-365-ISO10646-1
SIZE 64 100 100
FONTBOUNDINGBOX 47 61 0 -1
STARTPROPERTIES 19
FOUNDRY "FreeType"
FAMILY_NAME "Titillium Web"
WEIGHT_NAME "Medium"
SLANT "R"
SETWIDTH_NAME "Normal"
ADD_STYLE_NAME ""
PIXEL_SIZE 89
POINT_SIZE 640
RESOLUTION_X 100
RESOLUTION_Y 100
SPACING "P"
AVERAGE_WIDTH 365
CHARSET_REGISTRY "ISO10646"
CHARSET_ENCODING "1"
FONT_ASCENT 100
FONT_DESCENT 34
COPYRIGHT "Copyright (c) 2009-2011 by Accademia di Belle Arti di Urbino and students of MA course of Visual design. Some rights reserved."
_OTF_FONTFILE "titilliumweb-numerals.otf"
_OTF_PSNAME "TitilliumWeb-Regular"
ENDPROPERTIES
CHARS 11
STARTCHAR 0030
ENCODING 48
SWIDTH 562 0
DWIDTH 50 0
BBX 43 61 3 -1
BITMAP
00000F000000
0003FFFC0000
000FFFFF0000
003FFFFFC000
00FFFFFFF000
01FFFFFFF800
03FFFFFFF800
03FF000FFC00
07FC0003FE00
0FF80001FE00
0FF00000FF00
1FE000007F00
1FE000007F80
1FC000003F80
3FC000003F80
3F8000003FC0
3F8000001FC0
3F8000001FC0
7F8000001FC0
7F0000001FC0
7F0000000FC0
7F0000000FE0
7F0000000FE0
7F0000000FE0
7F0000000FE0
7F0000000FE0
7F0000000FE0
FF0000000FE0
FF0000000FE0
FF0000000FE0
FF0000000FE0
FF0000000FE0
FF0000000FE0
FF0000000FE0
FF0000000FE0
7F0000000FE0
7F0000000FE0
7F0000000FE0
7F0000000FE0
7F0000000FE0
7F0000000FE0
7F0000001FE0
7F0000001FC0
7F8000001FC0
3F8000001FC0
3F8000001FC0
3F8000003FC0
3FC000003F80
1FC000007F80
1FE000007F80
1FF00000FF00
0FF00001FF00
07FC0003FE00
07FE000FFC00
03FFC07FFC00
01FFFFFFF800
00FFFFFFF000
007FFFFFC000
001FFFFF8000
0007FFFE0000
00007FE00000
ENDCHAR
STARTCHAR 0031
ENCODING 49
SWIDTH 562 0
DWIDTH 50 0
BBX 25 59 10 0
BITMAP
00003F80
0000FF80
0001FF80
0007FF80
000FFF80
003FFF80
007FFF80
01FFFF80
03FFBF80
0FFE3F80
1FFC3F80
7FF03F80
FFE03F80
FF803F80
7F003F80
7C003F80
38003F80
20003F80
00003F80
00003F80
00003F80
00003F80
00003F80
00003F80
00003F80
00003F80
00003F80
00003F80
00003F80
00003F80
00003F80
00003F80
00003F80
00003F80
00003F80
00003F80
00003F80
00003F80
00003F80
00003F80
00003F80
00003F80
00003F80
00003F80
00003F80
00003F80
00003F80
00003F80
00003F80
00003F80
00003F80
00003F80
00003F80
00003F80
00003F80
00003F80
00003F80
00003F80
00003F80
ENDCHAR
STARTCHAR 0032
ENCODING 50
SWIDTH 562 0
DWIDTH 50 0
BBX 38 60 6 0
BITMAP
0000600000
03FFFFC000
3FFFFFF800
7FFFFFFE00
7FFFFFFF00
7FFFFFFF80
7FFFFFFFC0
7E0001FFC0
0000007FE0
0000001FE0
0000001FE0
0000000FF0
0000000FF0
00000007F0
00000007F0
00000007F0
00000007F0
00000007F0
00000007F0
00000007F0
00000007F0
0000000FF0
0000000FE0
0000001FE0
0000001FE0
0000003FC0
0000003FC0
0000007F80
000000FF00
000001FF00
000001FE00
000003FC00
000007F800
00000FF000
00001FE000
00003FE000
00007FC000
0000FF8000
0001FE0000
0003FE0000
0007FC0000
000FF80000
001FF00000
003FE00000
007FC00000
00FF800000
01FF000000
01FE000000
03FC000000
07F8000000
0FF0000000
1FE0000000
3FC0000000
7F80000000
FFFFFFFFFC
FFFFFFFFFC
FFFFFFFFFC
FFFFFFFFFC
FFFFFFFFFC
FFFFFFFFFC
ENDCHAR
STARTCHAR 0033
ENCODING 51
SWIDTH 562 0
DWIDTH 50 0
BBX 39 61 5 -1
BITMAP
0001FC0000
01FFFFF000
1FFFFFFE00
7FFFFFFF00
3FFFFFFFC0
3FFFFFFFE0
3FFFDFFFE0
3C00007FF0
0000001FF0
0000000FF8
00000007F8
00000003F8
00000003F8
00000003F8
00000003F8
00000003F8
00000003F8
00000003F8
00000003F8
00000003F8
00000007F8
00000007F0
0000000FF0
0000001FE0
0000003FC0
000000FFC0
00000FFF00
00FFFFFE00
00FFFFF800
00FFFFFC00
00FFFFFF00
00FFFFFFC0
00000FFFE0
0000003FF0
0000000FF8
00000007F8
00000003FC
00000003FC
00000001FC
00000001FE
00000001FE
00000000FE
00000000FE
00000000FE
00000000FE
00000000FE
00000000FE
00000001FE
00000001FC
00000003FC
00000003FC
00000007F8
0000000FF8
7000003FF8
7FF801FFF0
7FFFFFFFE0
7FFFFFFFC0
7FFFFFFF80
FFFFFFFF00
07FFFFF800
0007FF8000
ENDCHAR
STARTCHAR 0034
ENCODING 52
SWIDTH 562 0
DWIDTH 50 0
BBX 42 59 4 0
BITMAP
0000FF000000
0000FE000000
0001FE000000
0001FC000000
0001FC000000
0003FC000000
0003F8000000
0007F8000000
0007F0000000
0007F0000000
000FF0000000
000FE0000000
001FE0000000
001FC0000000
001FC0000000
003F80000000
003F80000000
007F80000000
007F00000000
007F00000000
00FE00000000
00FE00000000
01FE00000000
01FC000FE000
01FC000FE000
03F8000FE000
03F8000FE000
07F8000FE000
07F0000FE000
07F0000FE000
0FE0000FE000
0FE0000FE000
1FC0000FE000
1FC0000FE000
1FC0000FE000
3F80000FE000
3F80000FE000
7F00000FE000
7F00000FE000
7F00000FE000
FE00000FE000
FE00000FE000
FFFFFFFFFFC0
FFFFFFFFFFC0
FFFFFFFFFFC0
FFFFFFFFFFC0
FFFFFFFFFFC0
FFFFFFFFFFC0
0000000FE000
0000000FE000
0000000FE000
0000000FE000
0000000FE000
0000000FE000
0000000FE000
0000000FE000
0000000FE000
0000000FE000
0000000FE000
ENDCHAR
STARTCHAR 0035
ENCODING 53
SWIDTH 562 0
DWIDTH 50 0
BBX 39 60 6 -1
BITMAP
3FFFFFFFF0
3FFFFFFFF0
3FFFFFFFF0
3FFFFFFFF0
3FFFFFFFF0
3FFFFFFFF0
3FFFFFFFF0
3F00000000
3F00000000
3F00000000
3F00000000
3E00000000
3E00000000
7E00000000
7E00000000
7E00000000
7E00000000
7E00000000
7E00000000
7E00000000
7E00000000
7E00000000
7E01FF8000
7C1FFFF800
7C7FFFFE00
7DFFFFFF80
7FFFFFFFC0
7FFFFFFFE0
7FFE01FFF0
7FE0003FF0
7F00000FF8
0C000007F8
00000003FC
00000003FC
00000001FC
00000001FC
00000001FE
00000001FE
00000000FE
00000000FE
00000000FE
00000000FE
00000000FE
00000001FC
00000001FC
00000001FC
00000001FC
00000003FC
00000007F8
00000007F8
0000000FF0
0000003FF0
F000007FE0
FFF807FFE0
FFFFFFFFC0
FFFFFFFF80
FFFFFFFE00
7FFFFFFC00
03FFFFE000
0007FE0000
ENDCHAR
STARTCHAR 0036
ENCODING 54
SWIDTH 562 0
DWIDTH 50 0
BBX 42 61 4 -1
BITMAP
000001800000
0000FFFFF800
0007FFFFFE00
001FFFFFFE00
003FFFFFFE00
007FFFFFFE00
01FFFEFFFE00
01FF80000200
03FE00000000
07FC00000000
07F800000000
0FF000000000
0FE000000000
1FC000000000
1FC000000000
3F8000000000
3F8000000000
3F8000000000
3F0000000000
7F0000000000
7F0000000000
7F0000000000
7F0000000000
7F001F800000
7F03FFFE0000
7F1FFFFF8000
7FFFFFFFE000
FFFFFFFFF800
FFFFFFFFFC00
FFFFF9FFFC00
FFFC000FFE00
FFE00003FF00
FF000001FF00
FE000000FF80
7E0000007F80
7F0000003F80
7F0000003F80
7F0000003FC0
7F0000001FC0
7F0000001FC0
7F0000001FC0
7F0000001FC0
7F0000001FC0
3F8000001FC0
3F8000001FC0
3F8000003FC0
3FC000003F80
1FC000003F80
1FE000007F80
0FE000007F80
0FF00000FF00
07F80001FF00
07FC0003FE00
03FE000FFE00
01FFC07FFC00
01FFFFFFF800
007FFFFFF000
003FFFFFE000
001FFFFF8000
0007FFFE0000
00007FE00000
ENDCHAR
STARTCHAR 0037
ENCODING 55
SWIDTH 562 0
DWIDTH 50 0
BBX 36 60 7 -1
BITMAP
FFFFFFFFF0
FFFFFFFFF0
FFFFFFFFF0
FFFFFFFFF0
FFFFFFFFF0
FFFFFFFFF0
FFFFFFFFF0
00000007F0
00000007F0
00000007F0
00000007F0
0000000FE0
0000000FE0
0000001FC0
0000001FC0
0000003FC0
0000003F80
0000007F80
0000007F00
0000007F00
000000FE00
000000FE00
000001FC00
000001FC00
000003F800
000003F800
000007F800
000007F000
00000FF000
00000FE000
00000FE000
00001FC000
00001FC000
00003F8000
00003F8000
00007F8000
00007F0000
0000FF0000
0000FE0000
0000FE0000
0001FC0000
0001FC0000
0003F80000
0003F80000
0007F80000
0007F00000
000FF00000
000FE00000
001FE00000
001FC00000
001FC00000
003F800000
003F800000
007F800000
007F000000
00FF000000
00FE000000
01FE000000
007C000000
000C000000
ENDCHAR
STARTCHAR 0038
ENCODING 56
SWIDTH 562 0
DWIDTH 50 0
BBX 44 61 3 -1
BITMAP
00001F000000
000FFFFE0000
007FFFFFC000
01FFFFFFF000
03FFFFFFFC00
07FFFFFFFE00
0FFFFFFFFF00
1FFE0007FF80
3FF00001FF80
3FE000007FC0
3FC000003FC0
7F8000003FC0
7F8000001FE0
7F0000001FE0
7F0000001FE0
7F0000000FE0
7F0000000FE0
7F0000000FE0
7F0000001FE0
7F0000001FE0
7F8000001FC0
3F8000003FC0
3FC000003FC0
1FE00000FF80
1FF00001FF00
0FFC0007FE00
07FF001FFC00
01FFFFFFF800
00FFFFFFE000
003FFFFFC000
00FFFFFFE000
03FFFFFFF800
07FFFFFFFE00
0FFC0007FF00
1FF00001FF80
3FE000007FC0
3FC000003FC0
7F8000001FE0
7F0000000FE0
FF0000000FE0
FE0000000FF0
FE0000000FF0
FE0000000FF0
FE00000007F0
FE0000000FF0
FE0000000FF0
FE0000000FF0
FF0000000FF0
FF0000000FE0
FF0000001FE0
7F8000003FE0
7FC000007FC0
7FF00000FFC0
3FFC0003FF80
1FFFC07FFF80
0FFFFFFFFF00
07FFFFFFFE00
03FFFFFFF800
00FFFFFFE000
001FFFFF8000
0000FFF00000
ENDCHAR
STARTCHAR 0039
ENCODING 57
SWIDTH 562 0
DWIDTH 50 0
BBX 41 61 4 -1
BITMAP
000018000000
000FFFE00000
003FFFF80000
00FFFFFE0000
01FFFFFF8000
07FFFFFFC000
0FFFFFFFE000
1FFC007FE000
1FF0001FF000
3FE0000FF800
3FC00007F800
7F800003FC00
7F000001FC00
FF000001FE00
FF000000FE00
FE000000FE00
FE0000007E00
FE0000007F00
FE0000007F00
FE0000007F00
FE0000003F00
FE0000003F80
FE0000003F80
FE0000003F80
FE0000003F80
FF0000003F80
FF0000003F80
7F8000003F80
7FC000003F80
3FE00001FF80
3FF0000FFF80
1FFF01FFFF80
0FFFFFFFFF80
07FFFFFFFF80
03FFFFFFFF80
00FFFFFE3F80
003FFFF03F80
0003FE003F80
000000003F80
000000003F80
000000003F80
000000007F80
000000007F00
000000007F00
000000007F00
00000000FF00
00000000FE00
00000001FE00
00000001FE00
00000003FC00
00000007FC00
0000000FF800
0000001FF800
0000007FF000
3F8003FFE000
3FFFFFFFC000
3FFFFFFF8000
3FFFFFFE0000
3FFFFFFC0000
1FFFFFE00000
003FFE000000
ENDCHAR
STARTCHAR 003A
ENCODING 58
SWIDTH 213 0
DWIDTH 19 0
BBX 7 39 6 0
BITMAP
FE
FE
FE
FE
FE
FE
FE
FE
FE
FE
00
00
00
00
00
00
00
00
00
00
00
00
00
00
00
00
00
00
00
FE
FE
FE
FE
FE
FE
FE
FE
FE
FE
ENDCHAR
ENDFONT
